<?xml version="1.0" encoding="iso-8859-1"?><!-- Uploaded to: SVG Repo, www.svgrepo.com, Generator: SVG Repo Mixer Tools -->
<svg height="800px" width="800px" version="1.1" id="Layer_1" xmlns="http://www.w3.org/2000/svg"
    xmlns:xlink="http://www.w3.org/1999/xlink" viewBox="0 0 512 512" xml:space="preserve">
<circle style="fill:#126DB1;" cx="256" cy="256" r="256" />
    <path style="fill:#125D95;" d="M256,0c-11.317,0-22.461,0.744-33.391,2.167C348.216,18.53,445.217,125.933,445.217,256
	s-97.002,237.47-222.609,253.833C233.539,511.256,244.683,512,256,512c141.385,0,256-114.616,256-256S397.385,0,256,0z" />
    <g>
	<path style="fill:#FFFFFF;" d="M121.878,376.756v-163.6c0-1.234,1.001-2.235,2.235-2.235h52.295c1.234,0,2.235,1.001,2.235,2.235
		v163.6c0,1.234-1.001,2.235-2.235,2.235h-52.295C122.879,378.991,121.878,377.991,121.878,376.756z" />
        <path style="fill:#FFFFFF;" d="M144.696,178.643c-18.719,0-33.948-15.23-33.948-33.948s15.229-33.948,33.948-33.948
		c18.719,0,33.948,15.23,33.948,33.948S163.415,178.643,144.696,178.643z" />
        <path style="fill:#FFFFFF;" d="M358.271,378.991c-1.466,0-2.654-1.189-2.654-2.653v-57.835c0-18.978-4.266-50.815-32.835-50.815
		s-32.835,31.837-32.835,50.815v57.835c0,1.466-1.189,2.653-2.654,2.653h-51.457c-1.466,0-2.654-1.189-2.654-2.653V213.575
		c0-1.466,1.189-2.654,2.654-2.654h40.327c1.466,0,2.654,1.189,2.654,2.654v11.057c0,2.128,2.394,3.41,4.142,2.196
		c14.998-10.427,32.488-15.907,50.954-15.907c25.026,0,45.747,9.973,59.922,28.841c11.961,15.92,18.548,37.498,18.548,60.759v75.816
		c0,1.466-1.189,2.653-2.654,2.653H358.271z" />
</g>
</svg>